<?xml version="1.0" encoding="UTF-8"?>
<svg xmlns="http://www.w3.org/2000/svg" viewBox="0 0 1190.55 841.89">
  <rect width="1190.55" height="841.89" fill="#ffffff"/>
  <defs><style>.st0 { fill: #0874ba; }</style></defs>
  <!-- scale to match floor 1 room size: 1190.55/1686=0.70614, centered vertically -->
  <g transform="translate(0 164.6) scale(0.70614)">
    <path class="st0" d="M1677.78,54.5H8.22v573.03l275.71.08c-.04.57.61,1.5.61,1.77v77.66h161.23v-79.51l790.76-.53v75.8h161.23v-75.8l280.03-.53V54.5ZM422.96,677.89h-115.09v-72.62h115.09v72.62ZM364.09,488.64v11.13h-56.22v-11.13h56.22ZM307.87,485.99v-15.37l56.22,15.37h-56.22ZM364.09,502.43v11.13h-56.22v-11.13h56.22ZM364.09,516.21v10.07h-56.22v-10.07h56.22ZM364.09,528.93v10.07h-56.22v-10.07h56.22ZM364.09,541.65v10.07h-56.22v-10.07h56.22ZM364.09,554.38v10.07h-56.22v-10.07h56.22ZM364.09,567.1v10.07h-56.22v-10.07h56.22ZM364.09,579.82v10.07h-56.22v-10.07h56.22ZM364.09,592.54v10.07h-56.22v-10.07h56.22ZM422.96,602.61h-51.97v-10.07h51.97v10.07ZM422.96,589.89h-51.97v-10.07h51.97v10.07ZM422.96,577.17h-51.97v-10.07h51.97v10.07ZM422.96,564.45h-51.97v-10.07h51.97v10.07ZM422.96,551.73h-51.97v-10.07h51.97v10.07ZM422.96,539h-51.97v-10.07h51.97v10.07ZM422.96,526.28h-51.97v-10.07h51.97v10.07ZM422.96,513.56h-51.97v-11.13h51.97v11.13ZM422.96,499.78h-51.97v-11.13h51.97v11.13ZM422.96,485.99h-51.97v-11.13h51.97v11.13ZM422.96,472.21h-51.97v-10.07h51.97v10.07ZM1372.29,676.83h-110.31v-68.91h110.31v68.91ZM1313.95,491.29v11.13h-51.97v-11.13h51.97ZM1261.98,488.64v-14.31l51.97,14.31h-51.97ZM1313.95,505.08v11.13h-51.97v-11.13h51.97ZM1313.95,518.86v10.07h-51.97v-10.07h51.97ZM1313.95,531.58v10.07h-51.97v-10.07h51.97ZM1313.95,544.3v10.07h-51.97v-10.07h51.97ZM1313.95,557.03v10.07h-51.97v-10.07h51.97ZM1313.95,569.75v10.07h-51.97v-10.07h51.97ZM1313.95,582.47v10.07h-51.97v-10.07h51.97ZM1313.95,595.19v10.07h-51.97v-10.07h51.97ZM1372.29,605.26h-51.44v-10.07h51.44v10.07ZM1372.29,592.54h-51.44v-10.07h51.44v10.07ZM1372.29,579.82h-51.44v-10.07h51.44v10.07ZM1372.29,567.1h-51.44v-10.07h51.44v10.07ZM1372.29,554.38h-51.44v-10.07h51.44v10.07ZM1372.29,541.65h-51.44v-10.07h51.44v10.07ZM1372.29,528.93h-51.44v-10.07h51.44v10.07ZM1372.29,516.21h-51.44v-11.13h51.44v11.13ZM1372.29,502.43h-51.44v-11.13h51.44v11.13ZM1372.29,488.64h-51.44v-11.13h51.44v11.13ZM1372.29,474.86h-51.44v-10.07h51.44v10.07ZM1651.26,247.45h-204.72v18.02h88.04v16.43h15.91v-16.43h100.77v62.02h-100.77v-14.84h-15.91v14.84h-28.64v18.02h145.32v254.98l-261.47-.53v-254.45h77.96v-18.02h-105.54v18.02h10.08v116.62h-51.44v-2.12s-6.89,0-6.89,0v25.97l-51.97-13.78v-126.69h11.67v-18.02h-87.51v18.02h57.81l1.06,254.98h-132.59v-254.98h31.82v-18.02h-64.7v18.02h16.97v254.98h-357.99v-254.98h299.12v-18.02h-387.69v18.02h72.66v254.98h-119.33v-254.98h3.71v-18.02h-58.34v18.02h38.72v254.98h-147.44l.53-254.98h65.76v-18.02h-82.21c.46.95-1.06,2.25-1.06,2.39v129.61h-51.97v-2.12s-6.89,0-6.89,0v25.97l-56.22-14.84v-161.15h-18.03v293.67H35.8v-335.55h203.66v-18.02H35.8V65.1h643.85v182.35h-213.73v18.02h239.19v-18.02h-9.55V65.1h135.24v182.35h-89.1v18.02h190.4v-18.02h-85.39V65.1h135.24v182.35h-13.26v18.02h182.44v-18.02h-153.27V65.1h221.16v182.35h-31.29v18.02h222.22v-18.02h-175.02V65.1h416.33v182.35Z"/>
    <path class="st0" d="M274.46,265.47h14.58c1.45,1.26.6,3.56.8,5.3h18.03v-5.3h118.8v-18.02h-152.21v18.02Z"/>
  </g>
</svg>
